<?xml version="1.0" encoding="utf-8"?>
<!-- Generator: Adobe Illustrator 26.2.1, SVG Export Plug-In . SVG Version: 6.00 Build 0)  -->
<svg version="1.1" id="Layer_1" xmlns="http://www.w3.org/2000/svg" xmlns:xlink="http://www.w3.org/1999/xlink" x="0px" y="0px"
	 viewBox="0 0 385 105" style="enable-background:new 0 0 385 105;" xml:space="preserve">
<style type="text/css">
	.st0{fill:#F4961B;}
	.st1{fill:#333333;}
</style>
<g>
	<g>
		<path class="st0" d="M48.2,47.9c0.2,0.6,0.2,1.1-0.1,1.4c-0.2,0.4-0.7,0.5-1.3,0.5H36.7c-1,0-1.6-0.5-1.9-1.4L32.5,41H16.2
			l-2.3,7.5c-0.3,1-0.9,1.4-1.9,1.4H1.9c-0.6,0-1.1-0.2-1.3-0.5c-0.2-0.4-0.3-0.8-0.1-1.4L16.4,1.8c0.4-0.9,1-1.4,1.9-1.4h11.9
			c0.9,0,1.6,0.5,1.9,1.4L48.2,47.9z M19.3,30.5h10l-4.7-15.2H24L19.3,30.5z"/>
		<path class="st0" d="M52,49.9c-1.1,0-1.7-0.6-1.7-1.7V2.3c0-1.1,0.6-1.7,1.7-1.7h8.7c0.9,0,1.6,0.4,2.1,1.1l18.1,25.9h0.5
			L81.3,2.3c0-1.1,0.6-1.7,1.7-1.7h10c1.1,0,1.7,0.6,1.7,1.7v45.9c0,1.1-0.6,1.7-1.7,1.7h-8.5c-0.9,0-1.6-0.3-2.1-1L64.2,23.5h-0.5
			l0.1,24.7c0,1.1-0.6,1.7-1.7,1.7H52z"/>
		<path class="st0" d="M98.7,49.9c-1.1,0-1.7-0.6-1.7-1.7v-46c0-1.1,0.6-1.7,1.7-1.7h9.8c1.1,0,1.7,0.6,1.7,1.7l0.1,46
			c0,1.1-0.6,1.7-1.7,1.7H98.7z"/>
		<path class="st0" d="M114.1,49.9c-1.1,0-1.7-0.6-1.7-1.7V2.3c0-1.1,0.6-1.7,1.7-1.7h8.7c0.9,0,1.6,0.4,2.1,1.1l18.1,25.9h0.5
			l-0.1-25.3c0-1.1,0.6-1.7,1.7-1.7h10c1.1,0,1.7,0.6,1.7,1.7v45.9c0,1.1-0.6,1.7-1.7,1.7h-8.5c-0.9,0-1.6-0.3-2.1-1l-18.3-25.3
			h-0.5l0.1,24.7c0,1.1-0.6,1.7-1.7,1.7H114.1z"/>
		<path class="st0" d="M160.8,49.9c-1.1,0-1.7-0.6-1.7-1.7v-46c0-1.1,0.6-1.7,1.7-1.7h16.6c8.3,0,14.6,2.2,19,6.5
			c4.4,4.3,6.6,10.4,6.6,18.2c0,7.8-2.2,13.9-6.6,18.2c-4.4,4.3-10.7,6.5-19,6.5H160.8z M172.3,38.4h5.4c7.7,0,11.6-4.4,11.6-13.2
			c0-8.8-3.9-13.2-11.6-13.2h-5.4V38.4z"/>
		<path class="st0" d="M245,47.9c0.2,0.6,0.2,1.1-0.1,1.4c-0.2,0.4-0.7,0.5-1.3,0.5h-10.1c-1,0-1.6-0.5-1.9-1.4l-2.3-7.5H213
			l-2.3,7.5c-0.3,1-0.9,1.4-1.9,1.4h-10.1c-0.6,0-1.1-0.2-1.3-0.5c-0.2-0.4-0.3-0.8-0.1-1.4l15.9-46.1c0.4-0.9,1-1.4,1.9-1.4h11.9
			c0.9,0,1.6,0.5,1.9,1.4L245,47.9z M216.2,30.5h10l-4.7-15.2h-0.7L216.2,30.5z"/>
	</g>
	<path class="st0" d="M239.8,6.5c0,0,32.9-13,78.5-2.3c0,0,9.3,0.8,39.1,14.3l7.7-12.3l19.5,42.3L338.2,50l8.1-13.2
		c0,0-23.6-16.2-55-24.1C291.2,12.7,268.2,6.4,239.8,6.5z"/>
	<path class="st1" d="M145.1,98.3c0,0-32.9,13-78.5,2.3c0,0-9.3-0.8-39.1-14.3l-7.7,12.3L0.4,56.3l46.4-1.4l-8.1,13.2
		c0,0,23.6,16.2,55,24.1C93.8,92.2,116.8,98.4,145.1,98.3z"/>
	<g>
		<path class="st1" d="M149.5,103.2c-1,0-1.4-0.5-1.4-1.4V55c0-0.9,0.5-1.4,1.4-1.4h16.9c11.5,0,17.3,4.3,17.3,13.1
			c0,5.5-2.3,9-6.9,10.7V78c5.8,1.8,8.7,5.6,8.7,11.3c0,4.8-1.6,8.3-4.9,10.5c-3.3,2.2-8.1,3.3-14.5,3.3H149.5z M159.6,93.6h6.5
			c2.5,0,4.4-0.4,5.6-1.2c1.2-0.8,1.9-2.2,1.9-4.3c0-3.8-2.4-5.7-7.1-5.7h-6.9V93.6z M159.6,73.6h6.3c1.8,0,3.3-0.5,4.3-1.4
			c1.1-0.9,1.6-2.2,1.6-3.9c0-3.3-2.1-5-6.4-5h-5.8V73.6z"/>
		<path class="st1" d="M235,101.6c0.4,1.1,0,1.6-1.2,1.6h-9.1c-0.9,0-1.4-0.4-1.6-1.2l-2.8-8.7h-17.9l-2.8,8.7
			c-0.2,0.8-0.7,1.2-1.6,1.2H189c-1.1,0-1.5-0.5-1.2-1.6l16.8-46.8c0.3-0.7,0.8-1.1,1.6-1.1h10.5c0.8,0,1.3,0.4,1.6,1.1L235,101.6z
			 M205.7,83.6h11.5l-5.4-16.4H211L205.7,83.6z"/>
		<path class="st1" d="M241.8,103.2c-1,0-1.4-0.5-1.4-1.4V55.1c0-0.9,0.5-1.4,1.4-1.4h8.4c0.7,0,1.3,0.3,1.7,0.9l20,28.7h0.5
			l-0.1-28.3c0-0.9,0.5-1.4,1.4-1.4h9c1,0,1.4,0.5,1.4,1.4v46.7c0,0.9-0.5,1.4-1.4,1.4h-8c-0.7,0-1.3-0.3-1.7-0.8l-20.4-28.5h-0.5
			l0.1,27.9c0,0.9-0.5,1.4-1.4,1.4H241.8z"/>
		<path class="st1" d="M295.4,103.2c-1,0-1.4-0.5-1.4-1.4V55c0-0.9,0.5-1.4,1.4-1.4h8.9c0.9,0,1.4,0.5,1.4,1.4v17.6h6.4l10.7-18
			c0.4-0.6,0.9-1,1.6-1h10.4c0.6,0,1,0.2,1.2,0.5c0.2,0.3,0.1,0.7-0.1,1.2l-14,22.6l14.7,23.6c0.3,0.5,0.4,0.8,0.2,1.2
			c-0.2,0.3-0.6,0.5-1.2,0.5h-10.6c-0.7,0-1.3-0.3-1.7-1l-11.4-18.4h-6.3v18c0,0.9-0.5,1.4-1.4,1.4H295.4z"/>
		<path class="st1" d="M384.9,101.6c0.4,1.1,0,1.6-1.2,1.6h-9.1c-0.9,0-1.4-0.4-1.6-1.2l-2.8-8.7h-17.9l-2.8,8.7
			c-0.2,0.8-0.7,1.2-1.6,1.2h-9.1c-1.1,0-1.5-0.5-1.2-1.6l16.8-46.8c0.3-0.7,0.8-1.1,1.6-1.1h10.5c0.8,0,1.3,0.4,1.6,1.1
			L384.9,101.6z M355.5,83.6H367l-5.4-16.4h-0.8L355.5,83.6z"/>
	</g>
</g>
</svg>
