<?xml version="1.0" encoding="utf-8"?>
<!-- Generator: Adobe Illustrator 26.1.0, SVG Export Plug-In . SVG Version: 6.00 Build 0)  -->
<svg version="1.1" id="Layer_1" xmlns="http://www.w3.org/2000/svg" xmlns:xlink="http://www.w3.org/1999/xlink" x="0px" y="0px"
	 viewBox="0 0 1056.6 202" style="enable-background:new 0 0 1056.6 202;" xml:space="preserve">
<g>
	<path style="fill:#FFFFFF;" d="M43.7,87.6H25.5V70.1h57v17.5H64.3v44.3H43.7V87.6z"/>
	<path style="fill:#FFFFFF;" d="M119.4,133.2c-4.8,0-9.2-0.8-13.3-2.5c-4.1-1.6-7.6-3.9-10.7-6.8c-3-2.9-5.4-6.3-7.1-10.2
		c-1.7-3.9-2.6-8.1-2.6-12.6V101c0-4.5,0.9-8.7,2.6-12.6c1.7-3.9,4.1-7.3,7.1-10.2c3-2.9,6.6-5.2,10.7-6.9c4.1-1.7,8.6-2.5,13.3-2.5
		s9.2,0.8,13.3,2.5c4.1,1.6,7.6,3.9,10.7,6.8c3,2.9,5.4,6.3,7.1,10.2c1.7,3.9,2.6,8.1,2.6,12.6v0.2c0,4.5-0.9,8.7-2.6,12.6
		c-1.7,3.9-4.1,7.3-7.1,10.2c-3,2.9-6.6,5.2-10.7,6.9C128.6,132.4,124.2,133.2,119.4,133.2z M119.6,114.9c1.9,0,3.7-0.4,5.3-1.1
		c1.6-0.8,2.9-1.8,4.1-3c1.1-1.3,2-2.7,2.6-4.4c0.6-1.6,0.9-3.4,0.9-5.2V101c0-1.8-0.3-3.6-0.9-5.3c-0.6-1.7-1.5-3.2-2.6-4.5
		c-1.1-1.3-2.5-2.3-4.1-3.1c-1.6-0.8-3.4-1.1-5.4-1.1c-1.9,0-3.7,0.4-5.3,1.1c-1.6,0.8-2.9,1.8-4.1,3c-1.1,1.3-2,2.7-2.6,4.4
		c-0.6,1.6-0.9,3.4-0.9,5.2v0.2c0,1.8,0.3,3.6,0.9,5.3s1.5,3.2,2.6,4.5c1.1,1.3,2.5,2.3,4.1,3.1
		C115.8,114.6,117.6,114.9,119.6,114.9z"/>
	<path style="fill:#FFFFFF;" d="M158.9,70.1h27.8c4.1,0,7.9,0.5,11.3,1.4c3.4,0.9,6.3,2.3,8.7,4.1c2.4,1.8,4.3,4.1,5.6,6.9
		c1.4,2.8,2,6,2,9.6v0.2c0,3.7-0.7,7-2,9.8c-1.4,2.9-3.3,5.3-5.7,7.2c-2.5,1.9-5.4,3.4-8.9,4.4c-3.4,1-7.3,1.5-11.4,1.5h-6.7v16.8
		h-20.7V70.1z M185.1,100.4c2.6,0,4.8-0.6,6.4-1.7c1.6-1.1,2.4-2.8,2.4-5.1v-0.2c0-2.2-0.8-3.9-2.3-5.1c-1.5-1.1-3.7-1.7-6.4-1.7
		h-5.6v13.8H185.1z"/>
	<path style="fill:#FFFFFF;" d="M239.1,116.9l25.6-18.4c1.9-1.4,3.3-2.6,4.1-3.9c0.8-1.2,1.2-2.4,1.2-3.6c0-1.4-0.5-2.5-1.5-3.3
		c-1-0.9-2.3-1.3-4.1-1.3s-3.5,0.6-5.3,1.8c-1.8,1.2-4,3.1-6.6,5.9L239,82.6c1.8-2.2,3.6-4.1,5.4-5.8c1.9-1.7,3.9-3.1,6-4.3
		c2.2-1.1,4.5-2,7.1-2.6c2.6-0.6,5.5-0.9,8.7-0.9c3.5,0,6.8,0.5,9.8,1.5c3,1,5.5,2.4,7.7,4.2c2.1,1.8,3.8,3.9,5,6.4
		c1.2,2.5,1.8,5.2,1.8,8.1v0.2c0,2.4-0.3,4.5-0.9,6.3c-0.6,1.9-1.4,3.5-2.6,5.1c-1.1,1.5-2.4,2.9-4,4.2c-1.5,1.3-3.2,2.5-5,3.7
		l-11,7.1h24.1v16.2h-52.1V116.9z"/>
	<path style="fill:#FFFFFF;" d="M324.9,133.2c-4.7,0-8.9-0.9-12.5-2.6c-3.6-1.7-6.8-4.1-9.3-7c-2.6-2.9-4.5-6.4-5.8-10.2
		c-1.3-3.9-2-7.9-2-12.2V101c0-4.2,0.7-8.3,2-12.2c1.4-3.9,3.3-7.3,5.9-10.3c2.6-2.9,5.7-5.3,9.4-7.1c3.7-1.8,7.9-2.6,12.6-2.6
		c4.6,0,8.8,0.9,12.5,2.6c3.7,1.7,6.8,4.1,9.4,7c2.6,2.9,4.5,6.4,5.8,10.2c1.3,3.9,2,7.9,2,12.2v0.2c0,4.2-0.7,8.3-2,12.2
		c-1.4,3.9-3.3,7.3-5.9,10.3c-2.6,2.9-5.7,5.3-9.4,7.1C333.7,132.3,329.5,133.2,324.9,133.2z M325.1,115.3c2.8,0,5.1-1.3,6.7-3.9
		c1.6-2.6,2.5-6,2.5-10.2V101c0-2.1-0.2-4.1-0.7-5.8c-0.4-1.8-1.1-3.3-1.9-4.5c-0.8-1.2-1.8-2.2-3-2.9s-2.4-1.1-3.8-1.1
		c-2.8,0-5.1,1.3-6.7,3.9c-1.6,2.6-2.5,6-2.5,10.2v0.2c0,2.1,0.2,4.1,0.7,5.8c0.4,1.8,1.1,3.3,1.9,4.5c0.8,1.2,1.8,2.2,3,2.9
		S323.7,115.3,325.1,115.3z"/>
	<path style="fill:#FFFFFF;" d="M413.8,133.2c-4.3,0-8.4-0.8-12.2-2.3c-3.9-1.5-7.3-3.7-10.2-6.5c-2.9-2.8-5.3-6.2-7-10.2
		c-1.7-3.9-2.6-8.3-2.6-13.1V101c0-4.6,0.8-8.9,2.5-12.8c1.7-3.9,4-7.4,7-10.2c3-2.9,6.5-5.1,10.5-6.8c4-1.6,8.3-2.4,12.9-2.4
		c3.4,0,6.5,0.4,9.4,1.2c2.9,0.8,5.4,1.9,7.8,3.3c2.3,1.4,4.4,3.1,6.2,5.1c1.8,2,3.3,4.1,4.6,6.5l-17,10c-1.2-2.2-2.6-4-4.4-5.4
		c-1.7-1.4-4-2.1-6.8-2.1c-1.8,0-3.4,0.4-4.8,1.1c-1.4,0.7-2.6,1.7-3.6,2.9c-1,1.2-1.8,2.7-2.3,4.3c-0.6,1.6-0.8,3.4-0.8,5.2v0.2
		c0,2,0.3,3.8,0.8,5.5c0.6,1.7,1.4,3.1,2.4,4.3c1,1.2,2.3,2.1,3.7,2.8c1.4,0.7,3,1,4.7,1c2.9,0,5.3-0.7,7.1-2.2
		c1.8-1.4,3.3-3.3,4.6-5.6l17,9.6c-1.3,2.3-2.8,4.5-4.6,6.5c-1.8,2-3.8,3.8-6.2,5.3c-2.4,1.5-5.1,2.7-8.1,3.6
		C421,132.8,417.6,133.2,413.8,133.2z"/>
	<path style="fill:#FFFFFF;" d="M468.5,69.7H489l26,62.2h-22.4l-3.3-8.3h-21.6l-3.2,8.3h-22.1L468.5,69.7z M484.2,108.9l-5.6-15
		l-5.6,15H484.2z"/>
	<path style="fill:#FFFFFF;" d="M544.1,133c-6.3,0-12.2-0.9-17.6-2.6c-5.4-1.7-10.1-4.3-14.1-7.8l11-13.2c3.4,2.6,6.9,4.4,10.6,5.6
		c3.7,1.1,7.4,1.7,11,1.7c1.9,0,3.2-0.2,4.1-0.7c0.8-0.5,1.2-1.1,1.2-1.9v-0.2c0-0.9-0.6-1.6-1.8-2.2c-1.2-0.6-3.5-1.2-6.8-1.9
		c-3.5-0.7-6.8-1.5-9.9-2.5c-3.1-0.9-5.9-2.1-8.3-3.6c-2.4-1.5-4.3-3.3-5.7-5.5s-2.1-5-2.1-8.3v-0.2c0-2.9,0.6-5.7,1.7-8.2
		c1.1-2.5,2.8-4.7,5-6.6c2.2-1.9,4.9-3.4,8.2-4.4c3.3-1.1,7-1.6,11.3-1.6c6,0,11.3,0.7,15.8,2.1s8.5,3.5,12.1,6.4l-10.1,13.9
		c-2.9-2.1-6-3.7-9.3-4.6c-3.3-1-6.3-1.5-9.2-1.5c-1.5,0-2.7,0.2-3.4,0.7c-0.7,0.5-1.1,1.1-1.1,1.9V88c0,0.4,0.1,0.8,0.4,1.1
		s0.7,0.7,1.3,1c0.6,0.3,1.5,0.6,2.5,0.9c1.1,0.3,2.4,0.6,4.1,0.9c3.9,0.7,7.5,1.6,10.8,2.6c3.2,1,6,2.3,8.3,3.8
		c2.3,1.6,4.1,3.4,5.4,5.6c1.3,2.2,1.9,4.8,1.9,7.9v0.2c0,3.2-0.6,6.1-1.9,8.7c-1.3,2.6-3.1,4.8-5.5,6.6c-2.4,1.8-5.2,3.2-8.6,4.1
		C552,132.6,548.2,133,544.1,133z"/>
	<path style="fill:#FFFFFF;" d="M576.3,70.1H597v61.8h-20.7V70.1z"/>
	<path style="fill:#FFFFFF;" d="M604.2,70.1h19.3l22,27.3V70.1H666v61.8h-18.4l-22.9-28.5v28.5h-20.5V70.1z"/>
	<path style="fill:#FFFFFF;" d="M705.3,133.2c-4.8,0-9.2-0.8-13.3-2.5c-4.1-1.6-7.7-3.9-10.7-6.8c-3-2.9-5.4-6.3-7.1-10.2
		c-1.7-3.9-2.6-8.1-2.6-12.6V101c0-4.5,0.9-8.7,2.6-12.6c1.7-3.9,4.1-7.3,7.1-10.2c3-2.9,6.6-5.2,10.7-6.9c4.1-1.7,8.6-2.5,13.3-2.5
		c4.8,0,9.2,0.8,13.3,2.5c4.1,1.6,7.6,3.9,10.7,6.8c3,2.9,5.4,6.3,7.1,10.2c1.7,3.9,2.6,8.1,2.6,12.6v0.2c0,4.5-0.9,8.7-2.6,12.6
		c-1.7,3.9-4.1,7.3-7.1,10.2c-3,2.9-6.6,5.2-10.7,6.9C714.5,132.4,710.1,133.2,705.3,133.2z M705.5,114.9c1.9,0,3.7-0.4,5.3-1.1
		c1.6-0.8,2.9-1.8,4.1-3c1.1-1.3,2-2.7,2.6-4.4c0.6-1.6,0.9-3.4,0.9-5.2V101c0-1.8-0.3-3.6-0.9-5.3c-0.6-1.7-1.5-3.2-2.6-4.5
		c-1.1-1.3-2.5-2.3-4.1-3.1c-1.6-0.8-3.4-1.1-5.4-1.1c-1.9,0-3.7,0.4-5.3,1.1c-1.6,0.8-2.9,1.8-4.1,3c-1.1,1.3-2,2.7-2.6,4.4
		c-0.6,1.6-0.9,3.4-0.9,5.2v0.2c0,1.8,0.3,3.6,0.9,5.3s1.5,3.2,2.6,4.5c1.1,1.3,2.5,2.3,4.1,3.1
		C701.7,114.6,703.5,114.9,705.5,114.9z"/>
</g>
</svg>
