<?xml version="1.0" encoding="utf-8"?>
<!-- Generator: Adobe Illustrator 24.1.2, SVG Export Plug-In . SVG Version: 6.00 Build 0)  -->
<svg version="1.1" id="Layer_1" xmlns="http://www.w3.org/2000/svg" xmlns:xlink="http://www.w3.org/1999/xlink" x="0px" y="0px"
	 viewBox="0 0 257 124" style="enable-background:new 0 0 257 124;" xml:space="preserve">
<style type="text/css">
	.st0{fill:#EE3524;}
</style>
<g id="layer1" transform="translate(0,-997.3622)">
	<g id="g2986" transform="matrix(0.2489829,0,0,0.2489829,-18.609004,985.04271)">
		<path id="path2988" class="st0" d="M252,177.9h90.6l-8.7,29.7h-59L264.8,242h59.1l-8.3,29.3h-59.1l-13,44.2h59.4l-8.7,29h-90.9
			L252,177.9z M632.4,60.9c265.2,37.7,451.8,125,451.8,226.1c0,135.5-334.7,246.3-744.8,246.3c-85.1,0-167.4-5.1-243.8-13.8
			c25,0.7,50,1.4,75.7,1.4c410.1,0,744.5-115.9,744.5-257.9C915.7,181.2,804.9,108,632.4,60.9 M809.2,347.8
			c47.1,0,85.5-38.4,85.5-85.5s-38.4-85.5-85.5-85.5s-85.5,38.4-85.5,85.5S762.1,347.8,809.2,347.8 M548.7,177.9h101.4l-8.3,29.7
			h-35.2l-40.2,136.9h-30.8l40-136.9h-35.5L548.7,177.9z M514.7,209l-29,16.7c-6.2-8.7-12.3-14.5-18.8-17.8
			c-6.5-3.6-14.1-5.1-23.2-5.1c-19.2,0-36.2,7.6-50.7,23.2c-11.6,12.3-18.5,26.1-21,40.9c-2.5,14.9,0.4,27.2,8.7,37.3
			c8.3,10.1,19.6,15.2,34,15.2c10.9,0,21-2.5,30.4-8c9.8-5.1,18.1-13,25.4-23.2h-51.8l8.3-29.7h51.4h33
			c-5.4,27.5-17.8,49.6-36.2,65.9c-18.8,16-40.6,24.3-65.6,24.3c-26.8,0-46.7-9.4-59.1-28.3c-10.1-14.9-13.4-32.9-10.1-53.6
			c4-25.4,16.7-47.1,38-65.6c21-18.5,44.2-27.9,69.6-27.9c9.4,0,18.1,1.4,26.8,4.3c8.3,2.6,15.9,6.5,22.1,11.3
			C503.5,194.2,509.3,200.7,514.7,209"/>
	</g>
</g>
</svg>
