<?xml version="1.0" encoding="utf-8"?>
<!-- Generator: Adobe Illustrator 26.2.1, SVG Export Plug-In . SVG Version: 6.00 Build 0)  -->
<svg version="1.1" id="Layer_1" xmlns="http://www.w3.org/2000/svg" xmlns:xlink="http://www.w3.org/1999/xlink" x="0px" y="0px"
	 viewBox="0 0 263 83" style="enable-background:new 0 0 263 83;" xml:space="preserve">
<style type="text/css">
	.st0{fill:url(#SVGID_1_);}
	.st1{fill:url(#SVGID_00000183248751656219377940000011539111477602340024_);}
	.st2{fill:url(#SVGID_00000016783002336835750920000003822068153665656965_);}
	.st3{fill:url(#a_00000000192576312981302890000013715438130714853006_);}
</style>
<g>
	<linearGradient id="SVGID_1_" gradientUnits="userSpaceOnUse" x1="0.5644" y1="17.2021" x2="167.3362" y2="17.2021">
		<stop  offset="0" style="stop-color:#F4951B"/>
		<stop  offset="1" style="stop-color:#E14956"/>
	</linearGradient>
	<path class="st0" d="M22.3,1.3c-0.3-0.6-0.7-0.9-1.3-0.9h-8.2c-0.6,0-1.1,0.3-1.3,0.9L0.6,32.7c-0.1,0.4-0.1,0.7,0,1
		c0.2,0.3,0.5,0.4,0.9,0.4h6.9c0.7,0,1.1-0.3,1.3-1l1.5-5.1h11.2l1.5,5.1c0.2,0.7,0.6,1,1.3,1h6.9c0.4,0,0.7-0.1,0.9-0.4
		c0.2-0.2,0.2-0.6,0-1L22.3,1.3z M13.5,20.9l3.2-10.4h0.5l3.2,10.4H13.5z M63.5,0.4h-6.8c-0.8,0-1.2,0.4-1.2,1.2l0,17.3h-0.4
		L42.7,1.1c-0.3-0.5-0.8-0.8-1.4-0.8h-5.9c-0.8,0-1.2,0.4-1.2,1.2v31.4c0,0.8,0.4,1.2,1.2,1.2h6.8c0.8,0,1.2-0.4,1.2-1.2l-0.1-16.8
		h0.4l12.5,17.3c0.3,0.5,0.8,0.7,1.4,0.7h5.8c0.8,0,1.2-0.4,1.2-1.2V1.5C64.6,0.8,64.2,0.4,63.5,0.4z M74,0.3h-6.7
		c-0.8,0-1.2,0.4-1.2,1.2v31.4c0,0.8,0.4,1.2,1.2,1.2H74c0.8,0,1.2-0.4,1.2-1.2l0-31.4C75.1,0.7,74.7,0.3,74,0.3z M105.9,0.4H99
		c-0.8,0-1.2,0.4-1.2,1.2l0,17.3h-0.4L85.1,1.1c-0.3-0.5-0.8-0.8-1.4-0.8h-5.9c-0.8,0-1.2,0.4-1.2,1.2v31.4c0,0.8,0.4,1.2,1.2,1.2
		h6.8c0.8,0,1.2-0.4,1.2-1.2l-0.1-16.8h0.4l12.5,17.3c0.3,0.5,0.8,0.7,1.4,0.7h5.8c0.8,0,1.2-0.4,1.2-1.2V1.5
		C107,0.8,106.6,0.4,105.9,0.4z M134,4.7c-3-3-7.3-4.4-13-4.4h-11.3c-0.8,0-1.2,0.4-1.2,1.2v31.4c0,0.8,0.4,1.2,1.2,1.2h11.3
		c5.7,0,10-1.5,13-4.4c3-3,4.5-7.1,4.5-12.5C138.6,11.9,137,7.7,134,4.7z M121.3,26.2h-3.7v-18h3.7c5.3,0,7.9,3,7.9,9
		C129.2,23.2,126.6,26.2,121.3,26.2z M167.3,32.7L156.4,1.3c-0.3-0.6-0.7-0.9-1.3-0.9h-8.2c-0.6,0-1.1,0.3-1.3,0.9l-10.9,31.5
		c-0.1,0.4-0.1,0.7,0,1c0.2,0.3,0.5,0.4,0.9,0.4h6.9c0.7,0,1.1-0.3,1.3-1l1.5-5.1h11.2l1.5,5.1c0.2,0.7,0.6,1,1.3,1h6.9
		c0.4,0,0.7-0.1,0.9-0.4C167.4,33.5,167.4,33.1,167.3,32.7z M147.6,20.9l3.2-10.4h0.5l3.2,10.4H147.6z"/>
	
		<linearGradient id="SVGID_00000145058940482086628230000003788341395288643003_" gradientUnits="userSpaceOnUse" x1="164.1109" y1="17.0812" x2="263" y2="17.0812">
		<stop  offset="0" style="stop-color:#F4951B"/>
		<stop  offset="1" style="stop-color:#E14956"/>
	</linearGradient>
	<path style="fill:url(#SVGID_00000145058940482086628230000003788341395288643003_);" d="M164.1,4.5c0,0,22.5-8.9,53.6-1.6
		c0,0,6.3,0.6,26.7,9.8l5.2-8.4L263,33.2l-31.7,1l5.5-9c0,0-16.1-11-37.6-16.4C199.2,8.7,183.5,4.4,164.1,4.5z"/>
	
		<linearGradient id="SVGID_00000009587104535328608880000009228673287773663119_" gradientUnits="userSpaceOnUse" x1="0.5487" y1="54.5514" x2="99.4378" y2="54.5514">
		<stop  offset="0" style="stop-color:#E24A55"/>
		<stop  offset="1" style="stop-color:#843189"/>
	</linearGradient>
	<path style="fill:url(#SVGID_00000009587104535328608880000009228673287773663119_);" d="M99.4,67.2c0,0-22.5,8.9-53.6,1.6
		c0,0-6.3-0.6-26.7-9.8l-5.2,8.4L0.5,38.4l31.7-1l-5.5,9c0,0,16.1,11,37.6,16.4C64.4,62.9,80.1,67.2,99.4,67.2z"/>
	<g>
		
			<linearGradient id="a_00000043459175440222932060000005380486052529365132_" gradientUnits="userSpaceOnUse" x1="101.7231" y1="23.1643" x2="260.5978" y2="23.1643" gradientTransform="matrix(1 0 0 -1 0 84)">
			<stop  offset="0" style="stop-color:#E24A55"/>
			<stop  offset="1" style="stop-color:#843189"/>
		</linearGradient>
		
			<path id="a_00000019669031209689333290000003342838716251424680_" style="fill:url(#a_00000043459175440222932060000005380486052529365132_);" d="
			M253,55.4c-1.1,0.5-2.6,1.1-4.6,1.5l-2.7,0.6c-1.4,0.4-2.4,0.9-3,1.5c-0.5,0.8-0.8,1.6-0.8,2.6c0,1.2,0.4,2.1,1.1,2.8
			c0.7,0.6,1.7,0.9,3,0.9c2.2,0,3.9-0.6,5.1-1.9c1.2-1.2,1.9-3,1.9-5.1L253,55.4L253,55.4z M254.9,69.7c-1.6,0.9-3.4,1.4-5.2,1.6
			c-1.8,0.2-3.4,0.3-4.9,0.3c-2.8,0-5.3-0.8-7.4-2.3c-2.1-1.5-3.2-4-3.2-7.5c0-3.3,1-5.6,2.9-7s4.3-2.3,7.3-2.8
			c0.4,0,0.9-0.1,1.4-0.2c0.5-0.1,1.2-0.2,1.9-0.3c3.4-0.5,5.1-1.5,5.1-3c0-1.2-0.6-1.9-1.8-2.3s-2.3-0.5-3.3-0.5
			c-1.1,0-2.1,0.2-2.9,0.5c-0.8,0.3-1.5,0.9-1.9,1.8h-7.8c0.3-2.4,1.4-4.4,3.3-6c2.1-1.8,5.1-2.7,9-2.7c4.4,0,7.6,0.7,9.8,2.2
			c2.3,1.6,3.4,3.7,3.4,6.5v10.6c0,3.1-0.6,5.5-1.7,7.3C257.8,67.7,256.4,68.9,254.9,69.7z M216.7,71V55.9c0-3,0.4-5.6,1.3-7.6
			c0.9-2.1,2.1-3.7,3.7-5c1.5-1.2,3.3-2.1,5.2-2.6c2-0.5,4.1-0.8,6.1-0.8h1.2v8.3h-2.7c-2.3,0-3.9,0.5-5,1.6
			c-1.1,1.1-1.6,2.8-1.6,5.1v16H216.7z M207.9,55.4c-1.1,0.5-2.6,1.1-4.6,1.5l-2.7,0.6c-1.4,0.4-2.4,0.9-3,1.5
			c-0.5,0.8-0.8,1.6-0.8,2.6c0,1.2,0.4,2.1,1.1,2.8c0.7,0.6,1.7,0.9,3,0.9c2.2,0,3.9-0.6,5.1-1.9c1.2-1.2,1.9-3,1.9-5.1L207.9,55.4
			L207.9,55.4z M209.8,69.7c-1.6,0.9-3.4,1.4-5.2,1.6c-1.8,0.2-3.4,0.3-4.9,0.3c-2.8,0-5.3-0.8-7.4-2.3c-2.1-1.5-3.2-4-3.2-7.5
			c0-3.3,1-5.6,2.9-7c1.9-1.4,4.3-2.3,7.3-2.8c0.4,0,0.9-0.1,1.4-0.2c0.5-0.1,1.2-0.2,1.9-0.3c3.4-0.5,5.1-1.5,5.1-3
			c0-1.2-0.6-1.9-1.8-2.3c-1.1-0.3-2.2-0.5-3.3-0.5c-1.1,0-2.1,0.2-2.9,0.5c-0.8,0.3-1.5,0.9-1.9,1.8H190c0.3-2.4,1.4-4.4,3.3-6
			c2.1-1.8,5.1-2.7,9-2.7c4.4,0,7.6,0.7,9.8,2.2c2.3,1.6,3.4,3.7,3.4,6.5v10.6c0,3.1-0.6,5.5-1.7,7.3
			C212.7,67.7,211.3,68.9,209.8,69.7z M180.5,55.6c0-3-0.6-5.4-1.8-7c-1.2-1.6-2.8-2.4-5-2.4c-2.1,0-3.7,0.8-4.9,2.5
			c-1.1,1.5-1.6,3.8-1.6,7c0,3,0.6,5.2,1.8,6.7c1.2,1.6,2.8,2.4,5,2.4c2,0,3.6-0.8,4.8-2.5C179.9,60.6,180.5,58.4,180.5,55.6z
			 M167.1,78.5c0,1.1-0.4,2.1-1.2,2.8c-0.7,0.8-1.7,1.2-2.8,1.2h-4V53.4c0-5.4,1.6-9.2,4.8-11.1c3.1-2,6.7-3,10.4-3
			c1.9,0,3.9,0.4,5.9,1.1c2,0.7,3.6,1.8,4.7,3.2c2.3,3,3.5,6.9,3.5,11.7c0,4.9-1.2,8.9-3.5,11.9c-2.3,3-5.3,4.4-9,4.4
			c-1.9,0-3.7-0.3-5.1-1.1c-1.6-0.8-2.9-2.1-3.7-3.6V78.5z M150.4,55.4c-1.1,0.5-2.6,1.1-4.6,1.5l-2.7,0.6c-1.4,0.4-2.4,0.9-3,1.5
			c-0.5,0.8-0.8,1.6-0.8,2.6c0,1.2,0.4,2.1,1.1,2.8c0.7,0.6,1.7,0.9,3,0.9c2.2,0,3.9-0.6,5.1-1.9c1.2-1.2,1.9-3,1.9-5.1V55.4z
			 M152.3,69.7c-1.6,0.9-3.4,1.4-5.2,1.6c-1.8,0.2-3.4,0.3-4.9,0.3c-2.8,0-5.3-0.8-7.4-2.3c-2.1-1.5-3.2-4-3.2-7.5
			c0-3.3,1-5.6,2.9-7c1.9-1.4,4.3-2.3,7.3-2.8c0.4,0,0.9-0.1,1.4-0.2c0.5-0.1,1.2-0.2,1.9-0.3c3.4-0.5,5.1-1.5,5.1-3
			c0-1.2-0.6-1.9-1.8-2.3c-1.1-0.3-2.2-0.5-3.3-0.5c-1.1,0-2.1,0.2-2.9,0.5c-0.8,0.3-1.5,0.9-1.9,1.8h-7.8c0.3-2.4,1.4-4.4,3.3-6
			c2.1-1.8,5.1-2.7,9-2.7c4.4,0,7.6,0.7,9.8,2.2c2.3,1.6,3.4,3.7,3.4,6.5v10.6c0,3.1-0.6,5.5-1.7,7.3
			C155.2,67.7,153.9,68.9,152.3,69.7z M109.7,78.5c0,1.1-0.4,2-1.2,2.8c-0.7,0.8-1.7,1.2-2.8,1.2h-4V53.4c0-5.4,1.6-9.2,4.8-11.1
			c3.1-2,6.7-3,10.4-3c1.9,0,3.9,0.4,5.9,1.1c2,0.7,3.6,1.8,4.7,3.2c2.3,3,3.5,6.9,3.5,11.7c0,4.9-1.2,8.9-3.5,11.9
			c-2.3,3-5.3,4.4-9,4.4c-1.9,0-3.7-0.3-5.1-1.1c-1.6-0.8-2.9-2.1-3.7-3.6L109.7,78.5L109.7,78.5z M123,55.6c0-3-0.6-5.4-1.8-7
			c-1.2-1.6-2.8-2.4-5-2.4c-2.1,0-3.7,0.8-4.9,2.5c-1.1,1.5-1.6,3.8-1.6,7c0,3,0.6,5.2,1.8,6.7c1.2,1.6,2.8,2.5,5,2.5
			c2,0,3.6-0.8,4.8-2.5C122.4,60.6,123,58.4,123,55.6z"/>
	</g>
</g>
</svg>
